<svg width="81" height="81" viewBox="0 0 81 81" fill="none" xmlns="http://www.w3.org/2000/svg">
<path d="M37.6297 50.9797L47.8766 51.0594C47.8766 51.0594 47.0609 53.7079 46.3859 54.7485C45.2844 56.436 44.7359 57.2985 44.2672 59.0282C43.5406 61.6907 43.6016 63.7391 43.6016 63.7391C43.6016 63.7391 44.1688 63.5422 44.8578 63.7391C45.6969 63.9782 46.1516 64.536 46.0766 64.8782C46.0063 65.1829 45.0734 64.9766 44.4266 65.6235C43.9156 66.1344 43.7188 67.0391 43.6391 67.625C43.5594 68.2157 43.4797 68.961 42.3828 69.1157C41.2813 69.275 39.636 69.3922 39.2797 68.8391C38.9281 68.2907 39.1203 58.7094 39.1203 58.7094L37.6297 50.9797Z" fill="#307D31"/>
<path d="M37.5125 48.8562C37.3156 49.2078 32.675 50.0421 32.675 50.0421C32.675 50.0421 31.1234 50.8718 30.5375 53.5812C30.2188 55.0484 30.2891 58.0203 30.0125 59.0609C29.6188 60.5515 27.9688 61.4187 28.0484 61.7703C28.1281 62.1218 29.5672 62.0984 30.6781 61.6109C33.1906 60.5093 33.6313 58.2312 34.4469 56.2718C35.2344 54.3875 36.725 53.3984 36.725 53.3984C36.725 53.3984 36.3734 54.7671 36.5234 56.2765C36.65 57.5749 37.0578 59.2296 36.5234 60.8375C36.0125 62.3703 35.2953 63.2937 35.5813 63.4343C35.7969 63.5375 38.3563 63.2796 39.3781 61.039C40.5078 58.564 40.5875 56.5343 41.2625 55.0812C42.0078 53.4734 43.4281 52.789 43.4281 52.789C43.4281 52.789 44.4359 53.3796 45.6688 55.1046C47.0422 57.0265 48.1906 58.6437 48.9313 59.6375C50.6656 61.9718 53.0703 62.7078 53.1453 62.314C53.2625 61.6859 51.9875 60.6781 51.7297 59.45C51.0969 56.4265 51.9641 54.9781 51.2469 52.6578C50.2156 49.3062 47.7828 49.2453 46.9391 49.0859C46.7422 49.0578 37.5125 48.8562 37.5125 48.8562Z" fill="#5C9823"/>
<path d="M33.1766 31.7843C32.6469 31.3109 24.8 25.5921 24.8 25.5921L24.6828 22.114C24.6828 22.114 22.7609 18.4812 24.9734 15.7765C26.8953 13.428 29.4594 14.0937 29.4594 14.0937C29.4594 14.0937 30.7438 12.4765 32.9844 12.364C35.8484 12.2187 37.2453 14.628 37.2453 14.628L50.1594 16.7515L57.4109 21.4671C57.4109 21.4671 58.4844 21.1202 59.375 21.7484C60.3031 22.3999 59.9984 23.7687 59.8953 24.3827C59.7969 24.9687 50.2156 32.614 50.2156 32.614L51.2188 47.5952L47.8719 51.3312C47.8719 51.3312 47.4031 51.7905 46.4422 51.9124C45.8844 51.9827 45.1672 51.7577 45.1672 51.7577L43.0813 45.7671L33.1766 31.7843Z" fill="#96010C"/>
<path d="M49.9766 14.2156L48.2328 14.3468L47.0094 15.3734L47.4453 17.3468C47.4453 17.3468 47.5016 18.8234 46.3391 19.5312C45.1766 20.239 42.8938 21.4015 42.8938 21.4015L41.3188 24.0078C41.3188 24.0078 40.3063 23.675 38.6563 22.8265C37.1141 22.0297 35.1406 20.2109 35.1406 20.2109L31.6109 19.9718C31.6109 19.9718 30.9359 19.9109 30.3688 20.5109C29.5531 21.3828 29.8438 23.2297 31.4422 24.9218C32.9797 26.5484 36.3078 28.5312 37.0484 29.0797C37.7891 29.6281 38.9188 30.3312 39.5609 30.6922C40.1797 31.039 40.9203 31.5359 41.2438 31.475C41.5672 31.4093 42.0453 30.3078 43.5594 29.2437C45.0734 28.1797 46.5547 27.2797 48.9734 26.4406C51.3922 25.6015 53.7125 24.6359 54.4203 24.1859C55.1281 23.7359 54.1625 20.675 53.2906 18.8047C52.4188 16.9343 50.0375 14.0234 49.9766 14.2156Z" fill="#AF0C1B"/>
<path d="M41.5016 22.2407C40.9062 23.0282 41.0187 23.947 41.0187 23.947C41.0187 23.947 42.3172 24.7251 43.5969 25.1704C45.9172 25.9767 51.1391 25.7517 53.6516 24.622C56.1641 23.4923 57.3922 22.5173 57.7766 21.336C58.2266 19.9485 58.6016 17.1454 55.9016 14.9845C52.8078 12.5048 48.1391 13.8595 48.1391 14.5063C48.1391 15.1532 50.0094 14.6376 50.0094 16.986C50.0094 19.3345 47.9469 20.7548 45.8516 21.0454C43.7562 21.336 42.4016 21.0454 41.5016 22.2407Z" fill="#DB132C"/>
<path d="M30.8 20.2109C30.8 20.2109 30.5609 19.264 31.3484 18.5046C32.539 17.3421 34.0578 16.7327 34.925 15.7952C35.7922 14.8577 37.025 13.0812 40.0484 12.6687C44.5297 12.0546 47.4265 13.7327 48.0734 15.7952C48.7203 17.8577 47.4922 18.5656 46.2359 18.5984C44.9797 18.6312 44.2812 18.0406 41.9797 18.439C38.0797 19.114 36.725 21.2093 36.3734 21.4062C36.0172 21.5984 34.8594 20.9234 33.2797 20.5015C32.1406 20.1968 31.3156 20.2718 30.8 20.2109Z" fill="#F71538"/>
<path d="M43.6344 33.6782C43.6344 33.6782 44.4312 31.0298 47.0328 29.3516C49.6391 27.6735 51.5375 27.6313 54.8516 26.1266C58.1656 24.6219 59.3094 23.6329 59.8391 23.286C60.3828 22.9298 60.875 22.6063 61.2547 23.2298C61.4984 23.6329 61.0766 25.2829 59.9562 26.886C58.8125 28.5219 57.6875 29.4219 56.8344 32.2391C55.7047 35.9563 57.875 39.336 55.5594 45.3079C54.8094 47.2391 53.0516 49.0063 51.4156 50.1548C49.7797 51.3032 47.4219 51.561 47.4219 51.561C47.4219 51.561 48.2609 50.9751 48.7203 48.8188C48.9453 47.7594 49.2828 45.8798 49.025 43.8782C48.2891 38.1548 43.6344 33.6782 43.6344 33.6782Z" fill="#CD0E1F"/>
<path d="M25.8781 32.8812C25.9344 34.1375 25.3438 38.7078 26.1078 42.3781C26.7078 45.2656 29.6797 50.3703 35.2438 51.8703C40.3625 53.2531 45.8422 51.8281 45.8422 51.8281C45.8422 51.8281 47.9094 48.3359 46.8641 43.2453C45.725 37.6953 40.1797 33.5703 33.786 30.4109C26.1031 26.6141 24.711 22.0391 24.711 22.0391C24.711 22.0391 22.1844 21.3781 21.5516 23.6516C20.5813 27.1391 25.7938 30.9828 25.8781 32.8812Z" fill="#E2122D"/>
</svg>
